<svg width="70" height="70" viewBox="0 0 70 70" fill="none" xmlns="http://www.w3.org/2000/svg">
<rect width="70" height="70" rx="35" fill="#020100"/>
<path d="M25 43.75V32.5C25 32.1042 25.0887 31.7292 25.2662 31.375C25.4437 31.0208 25.6883 30.7292 26 30.5L33.5 24.875C33.9375 24.5417 34.4375 24.375 35 24.375C35.5625 24.375 36.0625 24.5417 36.5 24.875L44 30.5C44.3125 30.7292 44.5575 31.0208 44.735 31.375C44.9125 31.7292 45.0008 32.1042 45 32.5V43.75C45 44.4375 44.755 45.0263 44.265 45.5163C43.775 46.0063 43.1867 46.2508 42.5 46.25H38.75C38.3958 46.25 38.0992 46.13 37.86 45.89C37.6208 45.65 37.5008 45.3533 37.5 45V38.75C37.5 38.3958 37.38 38.0992 37.14 37.86C36.9 37.6208 36.6033 37.5008 36.25 37.5H33.75C33.3958 37.5 33.0992 37.62 32.86 37.86C32.6208 38.1 32.5008 38.3967 32.5 38.75V45C32.5 45.3542 32.38 45.6512 32.14 45.8912C31.9 46.1312 31.6033 46.2508 31.25 46.25H27.5C26.8125 46.25 26.2242 46.0054 25.735 45.5163C25.2458 45.0271 25.0008 44.4383 25 43.75Z" fill="#FDFFFC"/>
</svg>
