<svg width="26" height="26" viewBox="0 0 26 26" fill="none" xmlns="http://www.w3.org/2000/svg">
<path d="M19.25 2.17499C21.1353 3.26356 22.7037 4.82564 23.7998 6.70661C24.8959 8.58758 25.4817 10.7222 25.4993 12.8992C25.5169 15.0761 24.9656 17.2199 23.9 19.1184C22.8345 21.0168 21.2916 22.604 19.4241 23.7229C17.5566 24.8418 15.4292 25.4535 13.2526 25.4976C11.076 25.5416 8.92569 25.0164 7.01444 23.974C5.1032 22.9316 3.49734 21.4081 2.35583 19.5544C1.21433 17.7006 0.576762 15.5809 0.50625 13.405L0.5 13L0.50625 12.595C0.576254 10.4362 1.20443 8.33244 2.32955 6.48873C3.45466 4.64502 5.03832 3.1243 6.92612 2.07484C8.81391 1.02538 10.9414 0.482984 13.1013 0.500535C15.2611 0.518086 17.3795 1.09498 19.25 2.17499ZM13 5.49999C12.6938 5.50003 12.3983 5.61243 12.1695 5.81588C11.9407 6.01933 11.7946 6.29967 11.7587 6.60374L11.75 6.74999V13L11.7612 13.1637C11.7898 13.3806 11.8747 13.5862 12.0075 13.76L12.1163 13.885L15.8663 17.635L15.9838 17.7375C16.203 17.9076 16.4725 17.9999 16.75 17.9999C17.0275 17.9999 17.297 17.9076 17.5163 17.7375L17.6337 17.6337L17.7375 17.5162C17.9076 17.297 17.9999 17.0274 17.9999 16.75C17.9999 16.4725 17.9076 16.203 17.7375 15.9837L17.6337 15.8662L14.25 12.4812V6.74999L14.2413 6.60374C14.2054 6.29967 14.0593 6.01933 13.8305 5.81588C13.6017 5.61243 13.3062 5.50003 13 5.49999Z" fill="#020100"/>
</svg>
